<?xml version="1.0" standalone="no"?>
<!DOCTYPE svg PUBLIC "-//W3C//DTD SVG 20010904//EN"
 "http://www.w3.org/TR/2001/REC-SVG-20010904/DTD/svg10.dtd">
<svg version="1.0" xmlns="http://www.w3.org/2000/svg"
 width="105.000000pt" height="38.000000pt" viewBox="0 0 105.000000 38.000000"
 preserveAspectRatio="xMidYMid meet">

<g transform="translate(0.000000,38.000000) scale(0.100000,-0.100000)"
fill="#000000" stroke="none">
<path d="M372 368 c-7 -7 -12 -18 -12 -26 0 -8 -9 -13 -22 -12 -13 1 -29 2
-35 1 -18 -1 -16 -36 2 -51 13 -11 12 -15 -10 -36 -14 -13 -25 -30 -25 -38 0
-14 33 -39 41 -32 2 2 16 6 31 10 22 5 27 2 30 -16 2 -17 11 -24 31 -26 23 -3
28 1 33 27 6 26 9 29 26 20 45 -24 80 24 38 54 l-20 14 20 18 c11 10 20 26 20
36 0 22 -32 41 -55 33 -10 -4 -22 1 -31 15 -17 23 -44 27 -62 9z m45 -9 c8 -8
8 -20 1 -40 -12 -34 -23 -37 -38 -9 -21 39 8 78 37 49z m-51 -60 c9 -10 26
-19 36 -19 13 0 18 -6 16 -17 -4 -23 -44 -24 -40 -2 2 12 -4 15 -20 12 -29 -5
-63 19 -55 40 7 19 39 12 63 -14z m140 16 c8 -20 -11 -42 -41 -47 -34 -7 -48
13 -29 40 17 25 62 30 70 7z m-141 -76 c11 -17 -26 -49 -57 -49 -32 0 -36 15
-11 42 18 20 58 24 68 7z m126 -8 c18 -15 21 -22 13 -31 -15 -15 -74 13 -74
35 0 21 33 19 61 -4z m-72 -19 c14 -26 2 -64 -18 -60 -26 5 -28 78 -2 78 6 0
15 -8 20 -18z"/>
<path d="M0 200 c0 -67 4 -110 10 -110 6 0 10 5 10 11 0 5 10 3 22 -5 82 -58
170 60 101 136 -18 20 -64 24 -94 8 -17 -10 -19 -7 -19 30 0 29 -4 40 -15 40
-12 0 -15 -19 -15 -110z m120 10 c39 -39 16 -100 -39 -100 -36 0 -51 17 -51
56 0 23 7 38 22 48 30 21 44 20 68 -4z"/>
<path d="M190 301 c0 -6 5 -13 10 -16 6 -3 10 -48 10 -101 0 -77 3 -94 15 -94
12 0 15 19 15 110 l0 110 -25 0 c-14 0 -25 -4 -25 -9z"/>
<path d="M807 253 c-4 -3 -7 -39 -7 -80 0 -58 3 -73 15 -73 11 0 15 13 15 53
0 65 24 96 59 77 18 -9 21 -20 21 -70 0 -47 3 -60 15 -60 12 0 15 13 15 60 0
48 4 61 19 70 25 13 27 13 45 -6 11 -10 16 -34 16 -70 0 -41 4 -54 15 -54 21
0 21 107 -1 138 -18 26 -65 30 -84 7 -12 -14 -15 -14 -30 0 -20 18 -61 20 -78
3 -9 -9 -12 -9 -12 0 0 13 -13 16 -23 5z"/>
<path d="M616 234 c-9 -8 -16 -21 -16 -28 0 -8 -10 -11 -30 -8 -36 5 -51 -20
-26 -47 15 -16 14 -19 -9 -41 -31 -29 -32 -46 -4 -61 16 -8 28 -8 46 0 31 14
30 15 37 -13 11 -45 66 -40 66 6 0 16 5 18 33 13 25 -5 37 -2 47 10 13 15 11
20 -13 41 -16 13 -23 24 -18 24 6 0 18 11 27 25 22 33 5 55 -42 55 -22 0 -34
5 -34 14 0 13 -20 26 -40 26 -5 0 -16 -7 -24 -16z m51 -10 c7 -18 -12 -64 -27
-64 -16 0 -29 43 -18 63 11 21 37 22 45 1z m80 -41 c7 -18 -29 -53 -53 -53
-23 0 -28 29 -9 50 22 24 53 26 62 3z m-149 -9 c24 -16 21 -34 -5 -34 -18 0
-53 28 -53 42 0 13 34 9 58 -8z m68 -35 c3 -6 0 -17 -7 -25 -18 -17 -44 -2
-36 20 7 18 33 21 43 5z m-53 -33 c6 -16 -18 -41 -51 -51 -30 -9 -40 19 -17
45 21 23 60 26 68 6z m112 2 c25 -11 31 -38 9 -45 -12 -4 -64 34 -64 48 0 12
24 11 55 -3z m-57 -49 c2 -14 -4 -31 -12 -38 -13 -11 -17 -9 -27 12 -6 14 -9
33 -5 42 9 25 41 14 44 -16z"/>
</g>
</svg>
